<?xml version="1.0" encoding="utf-8"?>
<!-- Generator: Adobe Illustrator 16.0.0, SVG Export Plug-In . SVG Version: 6.00 Build 0)  -->
<!DOCTYPE svg PUBLIC "-//W3C//DTD SVG 1.1//EN" "http://www.w3.org/Graphics/SVG/1.1/DTD/svg11.dtd">
<svg version="1.1" id="Layer_1" xmlns="http://www.w3.org/2000/svg" xmlns:xlink="http://www.w3.org/1999/xlink" x="0px" y="0px"
	 width="157.175px" height="60.748px" viewBox="0 0 157.175 60.748" enable-background="new 0 0 157.175 60.748"
	 xml:space="preserve">
<g id="New_Symbol_1_">
</g>
<g id="New_Symbol">
</g>
<g>
	<polygon fill="#010101" points="77.977,28.302 64.376,28.302 64.376,32.454 77.977,32.454 79.198,32.454 92.798,32.454 
		92.798,28.302 79.198,28.302 	"/>
	<path fill="#010101" d="M150.633,13.776h-2.076l2.075-0.084l-0.022-0.549c-0.003-0.074-0.01-0.148-0.021-0.223l-0.08-0.549
		c-0.01-0.063-0.023-0.127-0.039-0.189l-0.133-0.543c-0.02-0.076-0.042-0.15-0.07-0.225l-0.192-0.52
		c-0.021-0.059-0.047-0.115-0.072-0.172l-0.237-0.496c-0.027-0.057-0.057-0.111-0.09-0.166l-0.281-0.475
		c-0.033-0.059-0.072-0.113-0.109-0.166l-0.327-0.445c-0.04-0.055-0.082-0.105-0.126-0.154l-0.371-0.416
		c-0.052-0.059-0.107-0.113-0.166-0.166l-0.414-0.371c-0.05-0.045-0.102-0.086-0.156-0.125l-0.445-0.326
		c-0.049-0.037-0.102-0.072-0.154-0.104l-0.468-0.281c-0.062-0.037-0.123-0.07-0.188-0.102l-0.503-0.236
		c-0.054-0.025-0.107-0.047-0.161-0.068l-0.52-0.193c-0.072-0.025-0.146-0.049-0.219-0.066l-0.535-0.133
		c-0.064-0.018-0.131-0.031-0.197-0.041l-0.549-0.082c-0.074-0.01-0.148-0.018-0.222-0.02l-0.557-0.021l-0.082,2.074V6.065h-37.37
		v4.154h37.327l0.405,0.016l0.338,0.051l0.324,0.08l0.328,0.123l0.33,0.154l0.295,0.178l0.289,0.213l0.253,0.225l0.227,0.252
		l0.208,0.283l0.182,0.307l0.156,0.328l0.12,0.322l0.081,0.33l0.051,0.342l0.016,0.395v10.879l-0.016,0.4l-0.05,0.334l-0.082,0.332
		l-0.12,0.322l-0.158,0.332l-0.18,0.309l-0.203,0.27l-0.231,0.258l-0.253,0.227l-0.299,0.219l-0.297,0.186l-0.305,0.143
		l-0.328,0.117l-0.336,0.084l-0.352,0.053l-0.403,0.021h-37.314v4.152h37.327l0.403,0.016l0.339,0.051l0.336,0.084l0.328,0.117
		l0.305,0.145l0.297,0.182l0.299,0.221l0.253,0.225l0.231,0.26l0.203,0.271l0.178,0.307l0.16,0.334l0.12,0.32l0.082,0.332
		l0.05,0.334l0.016,0.4v10.879l-0.016,0.395l-0.051,0.342l-0.081,0.332l-0.12,0.318l-0.156,0.328l-0.182,0.309l-0.208,0.283
		l-0.227,0.252l-0.253,0.227l-0.289,0.211l-0.295,0.18l-0.328,0.154l-0.33,0.121l-0.325,0.082l-0.338,0.049l-0.402,0.018h-37.731
		l-0.396-0.018l-0.338-0.049l-0.325-0.082l-0.33-0.121l-0.333-0.158l-0.303-0.18l-0.276-0.201l-0.248-0.225l-0.232-0.26
		l-0.213-0.293l-0.188-0.309l-0.147-0.305l-0.113-0.32l-0.085-0.344l-0.052-0.355l-0.022-0.395V13.776h-2.076l2.075-0.086
		l-0.023-0.549c-0.002-0.072-0.01-0.146-0.02-0.221l-0.082-0.549c-0.01-0.063-0.022-0.127-0.038-0.189l-0.133-0.543
		c-0.017-0.066-0.038-0.135-0.061-0.199l-0.185-0.52c-0.024-0.068-0.053-0.133-0.082-0.197l-0.238-0.498
		c-0.03-0.063-0.063-0.123-0.101-0.184l-0.288-0.475c-0.031-0.051-0.065-0.1-0.099-0.146l-0.327-0.445
		c-0.04-0.055-0.081-0.105-0.126-0.154l-0.371-0.416c-0.048-0.055-0.099-0.105-0.152-0.154l-0.408-0.369
		c-0.054-0.049-0.11-0.096-0.168-0.139l-0.445-0.326c-0.054-0.041-0.11-0.076-0.168-0.111l-0.475-0.281
		C97.5,6.991,97.442,6.96,97.383,6.931l-0.505-0.236c-0.052-0.025-0.106-0.047-0.161-0.068l-0.519-0.191
		c-0.072-0.027-0.146-0.051-0.219-0.068l-0.535-0.133c-0.065-0.018-0.131-0.031-0.198-0.041L94.698,6.11
		c-0.074-0.01-0.148-0.018-0.222-0.02L93.92,6.069l-0.083,2.074V6.065H79.198h-1.221H63.338v2.078l-0.083-2.074l-0.556,0.021
		c-0.075,0.002-0.149,0.01-0.222,0.02l-0.549,0.082c-0.066,0.01-0.133,0.023-0.198,0.041l-0.535,0.133
		c-0.075,0.018-0.147,0.041-0.219,0.068l-0.519,0.191c-0.055,0.021-0.109,0.043-0.161,0.068l-0.505,0.236
		c-0.06,0.029-0.117,0.061-0.175,0.094l-0.474,0.281c-0.058,0.035-0.115,0.07-0.168,0.111l-0.445,0.326
		c-0.058,0.043-0.115,0.09-0.168,0.139l-0.407,0.371C57.899,8.3,57.849,8.351,57.8,8.405l-0.37,0.416
		c-0.045,0.049-0.086,0.1-0.126,0.154l-0.327,0.445c-0.036,0.047-0.068,0.096-0.099,0.146l-0.289,0.475
		c-0.037,0.061-0.07,0.121-0.1,0.184l-0.238,0.498c-0.03,0.064-0.058,0.129-0.082,0.197l-0.185,0.52
		c-0.024,0.064-0.044,0.133-0.061,0.199l-0.133,0.543c-0.016,0.063-0.028,0.127-0.038,0.189l-0.081,0.549
		c-0.011,0.074-0.019,0.148-0.021,0.221l-0.022,0.549l2.075,0.086h-2.076v33.141l-0.022,0.395l-0.052,0.355l-0.085,0.344
		l-0.113,0.32l-0.147,0.305l-0.188,0.309l-0.214,0.293l-0.232,0.26l-0.247,0.225l-0.276,0.201l-0.303,0.18l-0.333,0.158l-0.33,0.121
		l-0.325,0.082l-0.338,0.049l-0.396,0.018H14.293l-0.401-0.018l-0.338-0.049l-0.325-0.082l-0.33-0.121l-0.328-0.154l-0.295-0.18
		l-0.289-0.211l-0.253-0.227l-0.227-0.252L11.3,48.954l-0.182-0.309l-0.156-0.326l-0.12-0.32l-0.081-0.332l-0.051-0.342
		l-0.017-0.395V36.052l0.017-0.4l0.049-0.332l0.082-0.334l0.12-0.32l0.159-0.334l0.179-0.307l0.203-0.271l0.232-0.258l0.253-0.227
		l0.298-0.221l0.297-0.182l0.306-0.145l0.328-0.117l0.336-0.084l0.339-0.051l0.403-0.016h37.327v-4.152H14.308l-0.403-0.021
		l-0.352-0.053l-0.336-0.084l-0.328-0.117l-0.306-0.143l-0.297-0.186l-0.298-0.219l-0.253-0.225l-0.232-0.26l-0.203-0.27
		l-0.179-0.309l-0.159-0.332l-0.12-0.322l-0.082-0.332l-0.049-0.334l-0.017-0.4V13.817l0.017-0.395l0.051-0.342l0.081-0.33
		l0.12-0.322l0.156-0.328l0.182-0.307l0.208-0.283l0.227-0.252l0.253-0.225l0.289-0.213l0.295-0.178l0.328-0.154l0.33-0.123
		l0.324-0.08l0.338-0.051l0.404-0.016h37.327V6.065L14.253,6.067v2.076l-0.082-2.074l-0.558,0.021
		c-0.073,0.002-0.148,0.01-0.222,0.02l-0.549,0.082c-0.066,0.01-0.133,0.023-0.198,0.041L12.11,6.366
		c-0.074,0.018-0.147,0.041-0.219,0.068l-0.519,0.191c-0.054,0.021-0.109,0.043-0.161,0.068l-0.503,0.236
		c-0.065,0.031-0.127,0.064-0.188,0.102l-0.468,0.281C9.999,7.347,9.947,7.38,9.897,7.417L9.452,7.743
		c-0.054,0.039-0.106,0.08-0.155,0.125L8.882,8.239c-0.06,0.053-0.115,0.107-0.167,0.166l-0.37,0.416
		c-0.044,0.049-0.086,0.1-0.126,0.154L7.892,9.421c-0.04,0.053-0.077,0.109-0.11,0.166L7.5,10.062
		c-0.033,0.055-0.063,0.109-0.089,0.166l-0.237,0.496c-0.026,0.057-0.051,0.113-0.072,0.172l-0.192,0.52
		c-0.028,0.074-0.051,0.148-0.071,0.225l-0.133,0.543c-0.016,0.063-0.028,0.127-0.038,0.189l-0.081,0.549
		c-0.011,0.074-0.019,0.148-0.021,0.223l-0.022,0.549l2.075,0.084H6.542v10.961h2.076l-2.075,0.082l0.022,0.559
		c0.003,0.074,0.01,0.15,0.021,0.225l0.082,0.541c0.01,0.064,0.021,0.125,0.037,0.188l0.133,0.543
		c0.02,0.076,0.042,0.15,0.071,0.225l0.192,0.518c0.021,0.061,0.046,0.117,0.072,0.174l0.237,0.496
		c0.025,0.053,0.052,0.104,0.082,0.154l0.281,0.48c0.04,0.068,0.082,0.131,0.129,0.193l0.325,0.438
		c0.037,0.049,0.075,0.096,0.116,0.141l0.37,0.416c0.052,0.059,0.107,0.113,0.166,0.166l0.113,0.1l-0.112,0.1
		c-0.06,0.053-0.115,0.109-0.167,0.166l-0.37,0.416c-0.041,0.045-0.08,0.092-0.116,0.141l-0.325,0.438
		c-0.047,0.063-0.089,0.127-0.129,0.193L7.493,32.31c-0.03,0.051-0.057,0.102-0.082,0.154L7.174,32.96
		c-0.026,0.055-0.051,0.113-0.072,0.17l-0.192,0.52c-0.028,0.074-0.051,0.15-0.071,0.227l-0.133,0.541
		c-0.016,0.061-0.027,0.123-0.037,0.188l-0.082,0.541c-0.011,0.076-0.019,0.15-0.021,0.227l-0.022,0.557l2.075,0.082H6.542v10.963
		h2.076l-2.075,0.084l0.022,0.549c0.003,0.072,0.01,0.148,0.021,0.221l0.081,0.547c0.01,0.066,0.022,0.129,0.038,0.193l0.133,0.541
		c0.02,0.076,0.042,0.152,0.071,0.225l0.192,0.52c0.021,0.059,0.046,0.115,0.072,0.172l0.237,0.498
		c0.027,0.057,0.057,0.111,0.089,0.164l0.281,0.475c0.034,0.059,0.071,0.113,0.11,0.166l0.327,0.445
		c0.04,0.055,0.081,0.107,0.126,0.156l0.37,0.414c0.052,0.061,0.107,0.115,0.167,0.168l0.416,0.369
		c0.048,0.045,0.1,0.086,0.152,0.125l0.446,0.326c0.051,0.037,0.103,0.072,0.157,0.105l0.467,0.281
		c0.061,0.037,0.123,0.068,0.188,0.1l0.503,0.238c0.054,0.023,0.107,0.047,0.161,0.066l0.519,0.193
		c0.072,0.025,0.146,0.049,0.221,0.068l0.533,0.133c0.065,0.016,0.13,0.029,0.196,0.039l0.549,0.08
		c0.075,0.012,0.15,0.02,0.225,0.021l0.556,0.023l0.082-2.074v2.076h37.815v-2.076l0.083,2.074l0.549-0.023
		c0.075-0.002,0.148-0.01,0.224-0.021l0.548-0.08c0.065-0.01,0.132-0.023,0.195-0.039l0.535-0.133
		c0.075-0.02,0.148-0.043,0.221-0.068l0.519-0.193c0.054-0.02,0.108-0.043,0.162-0.068l0.503-0.236
		c0.061-0.027,0.119-0.059,0.175-0.094l0.475-0.281c0.058-0.035,0.114-0.072,0.168-0.111l0.446-0.326
		c0.058-0.043,0.114-0.088,0.167-0.137l0.409-0.371c0.054-0.049,0.104-0.1,0.152-0.154l0.371-0.414
		c0.044-0.049,0.086-0.102,0.126-0.156l0.327-0.445c0.034-0.047,0.068-0.096,0.098-0.146l0.29-0.475
		c0.036-0.059,0.069-0.121,0.101-0.184l0.236-0.498c0.031-0.064,0.058-0.129,0.082-0.195l0.185-0.52
		c0.024-0.066,0.045-0.133,0.061-0.201l0.134-0.541c0.016-0.064,0.028-0.127,0.038-0.193l0.081-0.547
		c0.01-0.064,0.016-0.129,0.02-0.193l0.03-0.549l-2.073-0.111h2.076V13.817l0.017-0.395l0.049-0.342l0.085-0.344l0.115-0.318
		l0.146-0.307l0.188-0.309l0.215-0.293l0.232-0.26l0.246-0.223l0.276-0.203l0.303-0.18l0.335-0.158l0.33-0.121l0.324-0.08
		l0.338-0.051l0.403-0.016h14.598h1.221h14.598l0.403,0.016l0.338,0.051l0.324,0.08l0.33,0.121l0.335,0.158l0.303,0.18l0.274,0.203
		l0.248,0.223l0.232,0.26l0.215,0.293l0.188,0.309l0.146,0.307l0.113,0.318l0.086,0.344l0.049,0.342l0.017,0.395v33.156h2.076
		l-2.073,0.111l0.03,0.549c0.003,0.064,0.01,0.129,0.02,0.193l0.082,0.547c0.008,0.066,0.021,0.129,0.037,0.193l0.134,0.541
		c0.017,0.068,0.037,0.135,0.06,0.201l0.185,0.52c0.024,0.066,0.052,0.131,0.082,0.195l0.238,0.498
		c0.031,0.063,0.063,0.125,0.1,0.184l0.29,0.475c0.031,0.051,0.063,0.1,0.098,0.146l0.327,0.445c0.04,0.055,0.081,0.107,0.126,0.156
		l0.371,0.414c0.048,0.055,0.099,0.105,0.152,0.154l0.409,0.371c0.052,0.049,0.109,0.094,0.167,0.137l0.445,0.326
		c0.054,0.039,0.11,0.076,0.168,0.111l0.475,0.281c0.057,0.035,0.115,0.066,0.175,0.094l0.503,0.236
		c0.054,0.025,0.107,0.049,0.161,0.068l0.519,0.193c0.072,0.025,0.146,0.049,0.221,0.068l0.533,0.133
		c0.065,0.016,0.13,0.027,0.196,0.037l0.549,0.082c0.074,0.012,0.148,0.02,0.224,0.021l0.548,0.023l0.083-2.074v2.076h37.815v-2.076
		l0.082,2.074l0.556-0.023c0.075-0.002,0.15-0.01,0.225-0.021l0.549-0.082c0.065-0.01,0.131-0.021,0.196-0.037l0.533-0.133
		c0.075-0.02,0.148-0.043,0.221-0.07l0.52-0.191c0.054-0.02,0.107-0.043,0.16-0.066l0.504-0.238c0.064-0.031,0.127-0.063,0.188-0.1
		l0.467-0.283c0.054-0.031,0.106-0.066,0.157-0.104l0.445-0.326c0.053-0.039,0.104-0.08,0.152-0.125l0.416-0.369
		c0.059-0.053,0.114-0.109,0.166-0.168l0.371-0.414c0.044-0.049,0.086-0.102,0.126-0.156l0.327-0.445
		c0.039-0.053,0.076-0.109,0.109-0.166l0.281-0.475c0.033-0.053,0.063-0.109,0.09-0.164l0.237-0.498
		c0.025-0.057,0.051-0.113,0.072-0.172l0.192-0.52c0.028-0.072,0.051-0.148,0.07-0.227l0.133-0.539
		c0.016-0.064,0.029-0.127,0.039-0.193l0.08-0.547c0.012-0.072,0.019-0.148,0.021-0.221l0.022-0.549l-2.075-0.084h2.076V36.011
		h-2.076l2.075-0.082l-0.022-0.557c-0.003-0.076-0.01-0.15-0.021-0.227l-0.082-0.541c-0.01-0.064-0.021-0.127-0.037-0.188
		l-0.133-0.541c-0.02-0.076-0.042-0.152-0.07-0.227l-0.192-0.52c-0.021-0.057-0.047-0.115-0.072-0.17l-0.237-0.496
		c-0.025-0.053-0.053-0.104-0.082-0.154l-0.281-0.482c-0.04-0.066-0.082-0.131-0.129-0.193l-0.325-0.438
		c-0.037-0.049-0.075-0.096-0.116-0.141l-0.371-0.416c-0.052-0.057-0.107-0.113-0.166-0.166l-0.111-0.1l0.111-0.1
		c0.059-0.053,0.114-0.107,0.166-0.166l0.371-0.416c0.041-0.045,0.079-0.092,0.116-0.141l0.325-0.438
		c0.047-0.063,0.089-0.127,0.129-0.193l0.281-0.48c0.029-0.051,0.057-0.102,0.082-0.154l0.237-0.496
		c0.025-0.057,0.051-0.113,0.072-0.174l0.192-0.518c0.028-0.074,0.051-0.148,0.07-0.225l0.133-0.543
		c0.016-0.063,0.027-0.123,0.037-0.188l0.082-0.541c0.012-0.074,0.019-0.15,0.021-0.227l0.022-0.557l-2.075-0.082h2.076V13.776z"/>
</g>
</svg>
